<svg 
xmlns="http://www.w3.org/2000/svg"
 xmlns:xlink="http://www.w3.org/1999/xlink"
  version="1.1" x="0px" y="0px"
   viewBox="0 0 120 300" enable-background="new 0 0 100 100" 
   xml:space="preserve"><g >
   <path fill="#FFFFFF79" d="M49.432,46.697c-23.707,0-42.924,7.333-42.924,16.379c0,4.664,5.109,8.873,13.31,11.855   c5.69,6.523,16.817,10.955,29.615,10.955c12.797,0,23.925-4.432,29.614-10.955c8.2-2.982,13.31-7.191,13.31-11.855   C92.355,54.03,73.139,46.697,49.432,46.697z M49.432,70.226c-21.599,0-39.108-4.762-39.108-10.637s17.509-12.744,39.108-12.744   s39.107,6.869,39.107,12.744S71.03,70.226,49.432,70.226z"/>
   <path fill="#FFFFFF39" d="M84.5,58.188h0.002l-0.006-0.006c-0.114-0.145-0.245-0.287-0.394-0.429L67.215,39.349L54.676,25.095   c1.078-0.55,1.817-1.671,1.817-2.965v-3.253c0-1.418-0.888-2.629-2.138-3.108c-1.169-0.518-2.939-0.849-4.924-0.849   c-1.984,0-3.755,0.331-4.923,0.848c-1.25,0.479-2.139,1.689-2.139,3.108v3.253c0,1.294,0.74,2.415,1.819,2.965L31.648,39.349   L14.761,57.753c-0.148,0.142-0.279,0.284-0.393,0.429l-0.005,0.006h0.001c-0.352,0.447-0.536,0.907-0.536,1.376   c0,4.38,15.94,7.931,35.604,7.931c19.664,0,35.604-3.551,35.604-7.931C85.035,59.095,84.851,58.635,84.5,58.188z"/></g></svg>